<?xml version="1.0" standalone="no"?><!DOCTYPE svg PUBLIC "-//W3C//DTD SVG 1.1//EN" "http://www.w3.org/Graphics/SVG/1.1/DTD/svg11.dtd"><svg t="1588247325513" class="icon" viewBox="0 0 1024 1024" version="1.1" xmlns="http://www.w3.org/2000/svg" p-id="708" xmlns:xlink="http://www.w3.org/1999/xlink" width="64" height="64"><defs><style type="text/css"></style></defs><path d="M900.8 923.2c-3.2 3.2-6.4 8-11.2 11.2-8 6.4-17.6 9.6-27.2 9.6-25.6 0-44.8-20.8-44.8-44.8 0-9.6 3.2-17.6 8-25.6 1.6-3.2 4.8-6.4 8-8 64-73.6 102.4-169.6 102.4-275.2 0-233.6-188.8-422.4-422.4-422.4S89.6 356.8 89.6 590.4c0 105.6 38.4 201.6 104 276.8 8 8 12.8 19.2 12.8 32 0 25.6-20.8 44.8-44.8 44.8-9.6 0-19.2-3.2-25.6-8-4.8-4.8-9.6-9.6-12.8-14.4C46.4 832 0 716.8 0 590.4c0-283.2 228.8-512 512-512s512 228.8 512 512c0 126.4-46.4 243.2-123.2 332.8zM665.6 371.2c4.8-4.8 12.8-6.4 17.6-1.6 6.4 3.2 8 11.2 6.4 17.6l-112 305.6c-3.2 11.2-9.6 20.8-17.6 30.4-30.4 32-83.2 33.6-116.8 3.2-33.6-32-33.6-83.2-3.2-116.8l225.6-238.4z" fill="#ffffff" p-id="709"></path></svg>