<?xml version="1.0" standalone="no"?><!DOCTYPE svg PUBLIC "-//W3C//DTD SVG 1.1//EN" "http://www.w3.org/Graphics/SVG/1.1/DTD/svg11.dtd"><svg t="1588314658761" class="icon" viewBox="0 0 1024 1024" version="1.1" xmlns="http://www.w3.org/2000/svg" p-id="2948" xmlns:xlink="http://www.w3.org/1999/xlink" width="64" height="64"><defs><style type="text/css"></style></defs><path d="M512 962C263.9 962 62 760.1 62 512c0-121.5 47.8-235.5 134.7-320.9 10.4-10.3 27.2-10.1 37.4 0.3 10.3 10.4 10.1 27.2-0.3 37.4-76.6 75.4-118.9 176-118.9 283.2 0 218.9 178.1 397.1 397.1 397.1S909.1 730.9 909.1 512c0-107.2-42.2-207.8-118.9-283.1-10.4-10.3-10.6-27-0.3-37.4 10.2-10.4 27-10.6 37.4-0.3C914.2 276.5 962 390.5 962 512c0 248.1-201.9 450-450 450z" p-id="2949" fill="#8a8a8a"></path><path d="M512 538.5c-14.6 0-26.5-11.8-26.5-26.5V88.5c0-14.6 11.8-26.5 26.5-26.5 14.6 0 26.5 11.8 26.5 26.5V512c0 14.6-11.9 26.5-26.5 26.5z" p-id="2950" fill="#8a8a8a"></path></svg>