<?xml version="1.0" standalone="no"?><!DOCTYPE svg PUBLIC "-//W3C//DTD SVG 1.1//EN" "http://www.w3.org/Graphics/SVG/1.1/DTD/svg11.dtd"><svg t="1588263211673" class="icon" viewBox="0 0 1325 1024" version="1.1" xmlns="http://www.w3.org/2000/svg" p-id="1607" xmlns:xlink="http://www.w3.org/1999/xlink" width="82.8125" height="64"><defs><style type="text/css"></style></defs><path d="M927.623529 415.924706l379.904-397.552941c8.794353 13.251765 17.648941 30.900706 17.648942 48.549647v839.318588c0 17.648941-4.397176 30.900706-17.648942 44.152471L927.623529 415.924706zM22.106353 18.371765A67.463529 67.463529 0 0 1 66.258824 0.602353h1197.056c17.709176 0 30.960941 4.457412 39.755294 17.709176L662.588235 552.839529 22.106353 18.371765zM17.648941 950.392471c-8.794353-13.251765-17.648941-26.503529-17.648941-44.152471V66.861176C0 49.272471 8.854588 31.623529 17.648941 18.371765l379.904 397.552941-379.904 534.467765zM662.588235 672.105412l198.776471-181.12753 446.162823 468.269177c-13.251765 13.251765-26.503529 17.648941-44.212705 17.648941H61.861647c-17.709176 0-30.960941-8.854588-44.212706-17.648941L459.414588 490.917647 662.588235 672.105412z" fill="#CED3D7" p-id="1608"></path></svg>