<?xml version="1.0" standalone="no"?><!DOCTYPE svg PUBLIC "-//W3C//DTD SVG 1.1//EN" "http://www.w3.org/Graphics/SVG/1.1/DTD/svg11.dtd"><svg t="1588315727651" class="icon" viewBox="0 0 1024 1024" version="1.1" xmlns="http://www.w3.org/2000/svg" p-id="3412" xmlns:xlink="http://www.w3.org/1999/xlink" width="64" height="64"><defs><style type="text/css"></style></defs><path d="M329.159111 149.617778a43.064889 43.064889 0 0 1-15.36 58.936889C159.004444 297.016889 83.569778 477.070222 129.877333 647.623111c46.307556 170.666667 202.808889 289.28 381.724445 289.507556 178.915556 0.170667 335.644444-118.158222 382.350222-288.654223 46.648889-170.496-28.387556-350.663111-183.011556-439.466666a43.121778 43.121778 0 0 1-15.815111-59.335111 44.316444 44.316444 0 0 1 60.131556-15.644445A475.932444 475.932444 0 0 1 995.555556 546.702222C995.555556 810.268444 779.036444 1024 512 1024S28.444444 810.268444 28.444444 546.702222c0-172.202667 93.184-328.419556 241.265778-413.184a44.259556 44.259556 0 0 1 59.448889 16.099556zM510.350222 0c28.216889 0 42.325333 20.081778 42.325334 60.245333v361.415111c0 37.262222-12.174222 57.230222-36.522667 59.904l-5.802667 0.341334c-28.216889 0-42.325333-20.081778-42.325333-60.302222V60.302222c0-37.319111 12.174222-57.287111 36.522667-59.960889L510.293333 0z" fill="#8a8a8a" p-id="3413"></path></svg>